<svg width="116" height="40" viewBox="0 0 116 40" fill="none" xmlns="http://www.w3.org/2000/svg">
<path d="M39.752 18.7343V6.11758H43.4167V7.56392C44.0486 6.45703 45.667 5.73755 47.0264 5.73755C48.8211 5.73755 50.1106 6.47548 50.7426 7.71704C51.7272 6.29653 52.9469 5.73755 54.6351 5.73755C57.0103 5.73755 59.2863 7.13408 59.2863 10.5599V18.7343H55.5756V11.4233C55.5756 10.2297 54.9437 9.29067 53.5788 9.29067C52.214 9.29067 51.481 10.3312 51.481 11.4491V18.7343H47.6895V11.4233C47.6895 10.2297 47.0576 9.29067 45.6688 9.29067C44.3297 9.29067 43.5967 10.3312 43.5967 11.4749V18.7343H39.752Z" fill="white"/>
<path d="M69.0968 17.4654C68.4391 18.5575 66.9989 19.0132 65.7351 19.0132C62.6766 19.0132 60.959 16.7791 60.959 14.0894V6.11792H64.8019V13.2832C64.8019 14.5008 65.4596 15.4656 66.8226 15.4656C68.1085 15.4656 68.9204 14.5764 68.9204 13.3072V6.11792H72.7615V16.4747C72.7615 17.2298 72.8038 17.9843 72.8883 18.7346H69.1978C69.1354 18.3144 69.1017 17.8903 69.0968 17.4654Z" fill="white"/>
<path d="M74.5576 18.7341V0.355957H78.4006V18.7341H74.5576Z" fill="white"/>
<path d="M85.9087 6.11743H88.3573V9.49345H85.9087V14.2162C85.9087 15.2567 86.4597 15.5352 87.2974 15.5352C87.6383 15.5295 87.9776 15.4875 88.3096 15.4098V18.6069C88.1571 18.6825 87.5252 18.9629 86.3128 18.9629C83.708 18.9629 82.1153 17.4151 82.1153 14.9043V9.49345H79.8926V6.11743H80.5245C81.8379 6.11743 82.479 5.23007 82.479 4.05861V2.43701H85.9178L85.9087 6.11743Z" fill="white"/>
<path d="M92.2529 0.000147652C92.699 -0.00497304 93.1366 0.123203 93.51 0.368391C93.8834 0.613579 94.1759 0.964712 94.3501 1.37718C94.5244 1.78964 94.5727 2.24483 94.4888 2.68489C94.4049 3.12496 94.1926 3.53005 93.8789 3.84869C93.5653 4.16733 93.1644 4.38515 92.7272 4.47446C92.29 4.56377 91.8362 4.52055 91.4235 4.35029C91.0108 4.18003 90.6578 3.89041 90.4094 3.51823C90.161 3.14605 90.0283 2.70811 90.0283 2.26005C90.0307 1.66586 90.265 1.0963 90.6809 0.673738C91.0969 0.251172 91.6613 0.00932161 92.2529 0.000147652ZM90.3571 18.7343V6.11757H94.2001V18.7343H90.3571Z" fill="white"/>
<path d="M39.752 35.1514V22.5347H43.4167V23.9829C44.0486 22.8668 45.667 22.1565 47.0319 22.1565C48.8266 22.1565 50.1161 22.8944 50.7481 24.136C51.7327 22.7136 52.9524 22.1565 54.6406 22.1565C57.0158 22.1565 59.2918 23.5512 59.2918 26.9789V35.1533H55.5756V27.8404C55.5756 26.6468 54.9437 25.7078 53.5788 25.7078C52.214 25.7078 51.481 26.7483 51.481 27.8662V35.1514H47.6895V27.8404C47.6895 26.6468 47.0576 25.7078 45.6688 25.7078C44.3297 25.7078 43.5967 26.7483 43.5967 27.8902V35.1514H39.752Z" fill="white"/>
<path d="M73.9501 28.8312C73.9501 32.7385 71.044 35.5316 67.2764 35.5316C63.5087 35.5316 60.6045 32.7385 60.6045 28.8312C60.6045 24.9239 63.5436 22.1548 67.2764 22.1548C71.0091 22.1548 73.9501 24.9202 73.9501 28.8312ZM70.1071 28.8312C70.1071 26.6986 68.7423 25.7079 67.2764 25.7079C65.8105 25.7079 64.4456 26.6986 64.4456 28.8312C64.4456 30.9638 65.8362 31.9785 67.2764 31.9785C68.7166 31.9785 70.1071 30.962 70.1071 28.8312Z" fill="white"/>
<path d="M79.2581 35.1517H75.417V22.5349H79.1332V23.9831C79.8147 22.7914 81.3559 22.2065 82.6455 22.2065C85.8051 22.2065 87.2214 24.4664 87.2214 27.2337V35.1535H83.3784V27.8904C83.3784 26.647 82.7226 25.708 81.332 25.708C80.0682 25.708 79.2581 26.647 79.2581 27.9218V35.1517Z" fill="white"/>
<path d="M100.869 31.5212C100.263 33.7055 98.2664 35.5319 95.0811 35.5319C91.6185 35.5319 88.5342 33.0451 88.5342 28.8057C88.5342 24.7471 91.5413 22.1643 94.8019 22.1643C98.6963 22.1643 101.097 24.5755 101.097 28.6378C101.101 29.0364 101.076 29.4348 101.02 29.8295H92.2743C92.3514 31.2519 93.641 32.2665 95.1307 32.2665C96.5213 32.2665 97.3057 31.6061 97.6584 30.6173L100.869 31.5212ZM97.3792 27.3335C97.3278 26.3687 96.672 25.2009 94.8515 25.2009C93.2331 25.2009 92.4249 26.3945 92.3496 27.3335H97.3792Z" fill="white"/>
<path d="M103.295 39.9998L106.151 33.4507L100.868 22.5349H105.167L108.225 29.287L111.005 22.5349H115.075L107.34 39.9998H103.295Z" fill="white"/>
<path d="M19.3635 18.1825C19.3638 17.5345 19.1942 16.8979 18.8717 16.3367C18.5493 15.7755 18.0853 15.3094 17.5265 14.9854L5.51091 8.01938C4.83642 7.62941 4.03544 7.52402 3.28367 7.72634C2.53191 7.92866 1.89074 8.42216 1.50081 9.0986C1.11218 9.77554 1.00668 10.5796 1.20744 11.3345C1.40819 12.0894 1.89882 12.7336 2.57176 13.1258L10.5552 17.7527L0.0312285 23.8553L0 23.9826L2.84914 28.936L2.96855 28.9692L13.4907 22.8683V32.122C13.4907 32.9048 13.8004 33.6556 14.3516 34.2091C14.9028 34.7627 15.6504 35.0737 16.4299 35.0737C17.2094 35.0737 17.957 34.7627 18.5082 34.2091C19.0594 33.6556 19.369 32.9048 19.369 32.122L19.3635 18.1825Z" fill="white"/>
<path d="M21.2004 14.9855C21.5903 15.6625 22.2318 16.1563 22.984 16.3587C23.7362 16.561 24.5377 16.4553 25.2123 16.0647L32.8211 11.6519C32.8468 11.6372 32.8707 11.6187 32.8945 11.604L29.9646 6.50488L29.8856 6.54547L22.275 10.9564C21.601 11.348 21.1092 11.9923 20.9077 12.7477C20.7062 13.5031 20.8115 14.308 21.2004 14.9855Z" fill="white"/>
<path d="M16.4261 11.2533C17.2056 11.2533 17.9532 10.9423 18.5044 10.3888C19.0556 9.83522 19.3652 9.08444 19.3652 8.3016V0.442664C19.3652 0.413147 19.3652 0.385474 19.3652 0.355957H13.4961C13.4961 0.385474 13.4961 0.413147 13.4961 0.442664V8.3016C13.4961 9.08285 13.8045 9.83223 14.3537 10.3855C14.9029 10.9388 15.6481 11.2509 16.4261 11.2533Z" fill="white"/>
<path d="M29.965 29.0006L32.895 23.9015L32.8215 23.8554L26.0247 19.9148C25.6902 19.7012 25.3161 19.5578 24.925 19.4932C24.5338 19.4286 24.1337 19.4441 23.7487 19.5389C23.3637 19.6336 23.0017 19.8055 22.6846 20.0444C22.3674 20.2832 22.1017 20.584 21.9033 20.9286C21.7049 21.2733 21.578 21.6547 21.5302 22.0499C21.4824 22.4451 21.5147 22.8459 21.6252 23.2282C21.7356 23.6106 21.9219 23.9665 22.1729 24.2746C22.4239 24.5828 22.7343 24.8368 23.0856 25.0213L29.8824 28.9618C29.9118 28.9766 29.943 28.9858 29.965 29.0006Z" fill="white"/>
</svg>
